<svg width="48" height="48" viewBox="0 0 48 48" fill="none" xmlns="http://www.w3.org/2000/svg"><path fill-rule="evenodd" clip-rule="evenodd" d="M22.971 30.97A27.892 27.892 0 0 0 .49 19.586a23.81 23.81 0 0 0 0 9.602 18.323 18.323 0 0 1 17.675 13.558 28.833 28.833 0 0 1 4.807-11.774Z" fill="#20979e"/><path fill-rule="evenodd" clip-rule="evenodd" d="M18.74 47.519a27.887 27.887 0 0 1 11.387-22.524 28.841 28.841 0 0 0 11.855 4.801A18.322 18.322 0 0 0 28.35 47.514a23.82 23.82 0 0 1-9.603 0" fill="#20979e"/><path fill-rule="evenodd" clip-rule="evenodd" d="M24.168 17.796a27.892 27.892 0 0 0 22.504 11.407 23.81 23.81 0 0 0 0-9.602A18.323 18.323 0 0 1 28.975 6.038a28.833 28.833 0 0 1-4.807 11.758Z" fill="#20979e"/><path fill-rule="evenodd" clip-rule="evenodd" d="M28.398 1.27a27.89 27.89 0 0 1-11.413 22.524 28.757 28.757 0 0 0-11.829-4.802A18.322 18.322 0 0 0 18.811 1.275a23.82 23.82 0 0 1 9.603 0" fill="#20979e"/></svg>