<svg width="48" height="48" viewBox="0 0 48 48" fill="none" xmlns="http://www.w3.org/2000/svg">
  <path fill-rule="evenodd" clip-rule="evenodd" d="M22.9712 30.9708C20.3804 27.4418 16.9951 24.5722 13.0894 22.5942C9.1837 20.6162 4.86717 19.5853 0.489077 19.585C-0.163026 22.7525 -0.163026 26.0197 0.489077 29.1872C4.5157 29.1908 8.42898 30.5208 11.6239 32.9713C14.8188 35.4219 17.1174 38.8567 18.1644 42.7446C18.8704 38.5112 20.5126 34.4888 22.9712 30.9708Z" fill="#20979e" />
  <path fill-rule="evenodd" clip-rule="evenodd" d="M18.7403 47.5189C18.7338 43.1338 19.7615 38.809 21.74 34.8955C23.7184 30.982 26.5917 27.5901 30.1268 24.9951C33.6694 27.4626 37.7208 29.1033 41.9822 29.7962C38.0729 30.8309 34.6158 33.1298 32.1497 36.3346C29.6836 39.5393 28.3471 43.4699 28.3485 47.5135C25.1808 48.1654 21.9134 48.1654 18.7457 47.5135" fill="#20979e" />
  <path fill-rule="evenodd" clip-rule="evenodd" d="M24.168 17.7957C26.7587 21.3316 30.1463 24.2071 34.0562 26.1891C37.9661 28.1711 42.2881 29.2037 46.6716 29.2031C47.3237 26.0356 47.3237 22.7684 46.6716 19.6009C42.6406 19.6016 38.7219 18.2731 35.5225 15.8211C32.3231 13.3691 30.0217 9.93054 28.9748 6.03809C28.2665 10.2659 26.6244 14.2825 24.168 17.7957Z" fill="#20979e" />
  <path fill-rule="evenodd" clip-rule="evenodd" d="M28.3982 1.26968C28.4015 5.65708 27.3697 9.98339 25.3865 13.8971C23.4033 17.8107 20.5247 21.2014 16.9847 23.7935C13.4514 21.3271 9.40902 19.6863 5.15625 18.9923C9.06955 17.9617 12.5315 15.6645 15.0018 12.4594C17.4721 9.25429 18.8117 5.32157 18.8115 1.27507C21.9792 0.623155 25.2466 0.623155 28.4144 1.27507" fill="#20979e" />
</svg>
